# xmcd
#
# Track frame offsets:
#	150
#	16758
#	32598
#	48399
#	65174
#	82256
#	98867
#	115635
#	130138
#	147590
#	162240
#	179013
#	192845
#	210019
#
# Disc length: 2937 seconds
#
# Revision: 1
# Processed by: cddbd v1.5.2PL0 Copyright (c) Steve Scherf et al.
# Submitted via: audiograbber 1.83.01
#
DISCID=c00b770e
DTITLE=Various Artist - SD144
DYEAR=2006
DGENRE=Karaoke
TTITLE0=Rascal Flatts - Me And My Gang
TTITLE1=Keith, Toby - Little Too Late, A
TTITLE2=Adkins, Trace - Swing
TTITLE3=Shedaisy - In Terms Of Love
TTITLE4=Green, Pat - Feels Just Like It Should
TTITLE5=Holy, Steve - Brand New Girlfriend
TTITLE6=Lynne, Rockie - Do We Still
TTITLE7=Long, Brice - Meat And Potato Man
TTITLE8=Nichols, Steve - Unbroken Ground
TTITLE9=Williams, Hank Jr., Gretchen Wilson And Big and Rich - That's How They Do
TTITLE9=It In Dixie
TTITLE10=Tomlinson, Trent - One Wing In The Fire
TTITLE11=Worley, Darryl - Nothin' But A Love Thang
TTITLE12=Rio Grand - Kill Me Now
TTITLE13=McBride, Martina - You Ain't Woman Enough To Take My Man
EXTD=
EXTT0=
EXTT1=
EXTT2=
EXTT3=
EXTT4=
EXTT5=
EXTT6=
EXTT7=
EXTT8=
EXTT9=
EXTT10=
EXTT11=
EXTT12=
EXTT13=
PLAYORDER=
